<?xml version="1.0" encoding="utf-8"?>
<!-- Generator: Adobe Illustrator 24.0.2, SVG Export Plug-In . SVG Version: 6.00 Build 0)  -->
<svg version="1.1" id="Layer_1" xmlns="http://www.w3.org/2000/svg" xmlns:xlink="http://www.w3.org/1999/xlink" x="0px" y="0px"
	 viewBox="0 0 477.6 214.2" style="enable-background:new 0 0 477.6 214.2;" xml:space="preserve">
<style type="text/css">
	.st0{fill:none;}
	.st1{fill:#009AA7;}
	.st2{fill:none;stroke:#FFFFFF;stroke-width:1.769;stroke-miterlimit:10;}
	.st3{fill:#231F20;}
</style>
<title>7TG logos</title>
<desc>Created with AI</desc>
<g>
	<g>
		<g>
			<path class="st0" d="M52.9,70c0.5-0.4,0.9-0.8,1.3-1.3h-30C26,70.3,39.7,81.6,52.9,70z"/>
			<path class="st1" d="M52.9,70C39.7,81.7,26,70.4,24.2,68.7h-0.1c1.3,2,12.5,18.3,31.6,6.1c2.9-1.9,5.1-3.9,6.8-6.1h-8.2
				C53.8,69.1,53.4,69.6,52.9,70z"/>
			<path class="st1" d="M24,68.5c0,0,0,0.1,0.1,0.2h0.1C24.1,68.6,24,68.5,24,68.5z"/>
		</g>
		<g>
			<path class="st1" d="M59.9,185.4c-5,2.4-10.8,3.1-16.4,2.1c-5.5-1.1-10.8-3.9-14.6-8.2c-1.9-2.1-3.6-4.5-4.7-7.1
				c-1.1-2.6-1.9-5.4-2.1-8.3c-0.3-2.9,0-5.7,0.7-8.5s1.8-5.5,3.4-7.9s3.5-4.5,5.7-6.4c2.3-1.8,4.8-3.2,7.4-4.2
				c2.7-1,5.5-1.5,8.4-1.7c2.8-0.1,5.7,0.2,8.5,1c2.7,0.8,5.3,2,7.7,3.5c1.1,0.8,2.3,1.7,3.3,2.7c1.1,0.9,2,2,2.9,3.1
				c3.4,4.5,5.4,10.1,5.3,15.6c-0.2-2.8-0.8-5.5-1.8-8.1s-2.4-4.9-4.2-7c-0.9-1-1.8-2.1-2.9-2.9c-1-0.9-2.1-1.7-3.2-2.5
				c-2.3-1.4-4.8-2.5-7.4-3.2c-2.6-0.7-5.3-0.9-8-0.7s-5.4,0.7-7.9,1.7s-4.8,2.3-6.9,4s-3.9,3.7-5.3,6c-2.9,4.5-4.3,10-3.9,15.3
				c0.2,2.7,0.8,5.3,1.9,7.8c1,2.5,2.5,4.8,4.3,6.8c3.5,4.1,8.4,7,13.7,8.2C49,188,54.8,187.5,59.9,185.4z"/>
		</g>
		<path class="st1" d="M112,110.5l8.7-2.2l-1.4,5.3C116.3,111.8,112,110.5,112,110.5z"/>
		<path class="st1" d="M107.4,119.1l8.9-0.8l-2.2,5C111.4,121,107.4,119.1,107.4,119.1z"/>
		<path class="st1" d="M103.4,124l8.6,2.4l-3.9,3.8C106.5,127.3,103.4,124,103.4,124z"/>
		<path class="st1" d="M75.2,13.5l11.2-5.4L86,15.6C81.4,14,75.2,13.5,75.2,13.5z"/>
		<path class="st1" d="M85.5,15.2l12.1-2.9l-2,7.3C91.4,17,85.5,15.2,85.5,15.2z"/>
		<path class="st1" d="M95.5,19.2l12.4-1.1l-3.1,6.9C101.1,21.9,95.5,19.2,95.5,19.2z"/>
		<path class="st1" d="M74.1,157c-0.7,0.1-0.9-1-0.2-1.1c5.5-1.2,10.7-3.1,15.6-5.7c7.9-4,14.7-9.7,20.3-16.4
			c5.6-6.7,9.9-14.3,12.7-22.4c1.4-4.1,2.5-8.2,3.2-12.5c0.7-4.2,1.1-8.5,1.1-12.8s-0.4-8.6-1.1-12.8s-1.8-8.4-3.2-12.5
			c-2.9-8.1-7.2-15.8-12.7-22.4c-5.6-6.6-12.4-12.3-20.3-16.4c-7.8-4.1-16.6-6.5-25.6-7.1c9.1-0.6,18.3,1.1,26.8,4.8
			c4.2,1.8,8.2,4.1,12,6.8c3.8,2.7,7.2,5.8,10.3,9.2c6.2,6.8,11.1,14.8,14.3,23.5c1.6,4.3,2.8,8.8,3.7,13.3
			c0.8,4.5,1.2,9.1,1.2,13.7c0,4.6-0.4,9.2-1.2,13.7s-2,9-3.7,13.3c-3.2,8.6-8.1,16.7-14.3,23.5c-6.2,6.8-13.9,12.3-22.3,16
			C85.3,154.8,79.7,156.3,74.1,157z"/>
		<path class="st1" d="M38.2,20.4l6.7-10.3l3.7,6.6C43.7,17.6,38.2,20.4,38.2,20.4z"/>
		<path class="st1" d="M15.2,26.1L35.8,6.5L37.1,21C27.1,21.7,15.2,26.1,15.2,26.1z"/>
		<g>
			<path class="st1" d="M35.4,41.7c-3.5,0-6.3-2.8-6.3-6.2c0-3.4,2.8-6.2,6.3-6.2s6.3,2.8,6.3,6.2C41.7,39,38.9,41.7,35.4,41.7z
				 M35.4,31.2c-2.5,0-4.5,2-4.5,4.4s2,4.4,4.5,4.4s4.5-2,4.5-4.4C39.9,33.1,37.9,31.2,35.4,31.2z"/>
		</g>
		<path class="st1" d="M33.8,37c-1.6,0-2.9-1.3-2.9-2.8c0-1.6,1.3-2.8,2.9-2.8s2.9,1.3,2.9,2.8C36.7,35.8,35.4,37,33.8,37z
			 M33.8,32.2c-1.1,0-2,0.9-2,2s0.9,2,2,2s2-0.9,2-2S34.9,32.2,33.8,32.2z"/>
		<path class="st2" d="M32.1,59.7"/>
		<path class="st1" d="M43.2,52.4L43.2,52.4L43.2,52.4L43.2,52.4z"/>
		<path class="st1" d="M4.5,50.7c1.8,1.6,3.8,2.3,5.8,2.5l0.7-1.5l0.2-0.5l0,0c-2.4-0.4-4.1-1.8-4.1-1.8s3.2-17.1,9.3-21.6
			s9.3-8.2,14.4-16.2c0,0-8.6,11.7-17.7,14.1s-6,11.8-6.3,13.7C6.6,41.4,3.3,49.7,4.5,50.7z"/>
		<path class="st1" d="M50.3,38.8c0.1,0.1,0.1,0.2,0.1,0.3c0,0.2-0.1,0.4-0.1,0.4c-0.1,0.1-0.1,0.1-0.1,0.2
			c-0.1,0.1-0.1,0.1-0.1,0.1c-0.2,0.2-0.5,0.4-0.7,0.6c-0.4,0.8-0.7,1.7-0.9,2.6c-0.1,0.4-0.2,0.8-0.3,1.2c0,0.3-0.1,0.5-0.1,0.8
			c-0.1,1.3-0.2,2.6-0.2,4l-0.1,2v1v0.5c0,0.1,0,0.2,0,0.3V53l0,0c0,0.2,0.1,0.4,0.1,0.6l-0.2,0.1c0-0.1-0.1-0.2-0.1-0.3
			c0,0.1-0.1,0.1-0.1,0.2c-0.1,0.1-0.2,0.2-0.3,0.2c-0.2,0.1-0.3,0.1-0.5,0.1c-0.3,0-0.4,0-0.5-0.1c-0.3-0.1-0.4-0.2-0.6-0.3
			c-0.3-0.2-0.6-0.3-0.9-0.5c-0.3-0.2-0.6-0.3-0.9-0.5c-0.1-0.1-0.3-0.1-0.4-0.2h-0.1c-0.2,0-0.5,0.1-0.8,0.2s-0.6,0.2-0.9,0.4
			c-0.6,0.3-1.6,1.2-2.2,1.4c-2.4,1.2-4.9,2.4-7.2,3.7c-2.4,1.3-4.7,2.8-7,4.2c-1.2,0.7-2,0.8-3.2,1.4c-0.6,0.3-1.2,0.6-2,0.8
			c-0.2,0.1-0.4,0.1-0.5,0.1L19,64.6c-0.3,0.1-0.7,0.1-1.1,0.2c-0.7,0.1-1.5,0.1-2.3-0.1c-0.8-0.2-1.4-0.5-2-0.8s-1.2-0.6-1.8-0.9
			l-0.5-0.2l-0.2-0.1l-0.3-0.1c-0.4-0.2-0.7-0.4-1-0.7c-0.6-0.6-0.9-1.4-0.9-2.2s0.1-1.5,0.4-2.1c0.5-1.3,1.2-2.5,2.1-3.5l0.1,0.1
			c-0.6,1.2-1.2,2.4-1.4,3.7c-0.3,1.2-0.2,2.6,0.6,3.2c0.2,0.2,0.4,0.3,0.7,0.4l0.2,0.1l0.2,0.1l0.5,0.2c0.6,0.3,1.3,0.5,1.9,0.8
			c0.6,0.3,1.2,0.5,1.8,0.7c0.5,0.1,1.1,0.1,1.7,0c0.3,0,0.6-0.1,1-0.2l0.9-0.2c0.6-0.1,1.2-0.4,1.8-0.6c1.2-0.5,2.5-1.1,3.7-1.6
			c2.5-1.1,4.9-2.4,7.2-3.8c2.4-1.3,4.6-2.8,7-4.2c0.6-0.3,1.2-0.7,1.8-1c0.3-0.2,0.6-0.3,0.9-0.5c0.3-0.1,0.6-0.3,1.1-0.4h0.2
			c0.1,0,0.2,0,0.3,0s0.1,0,0.2,0c0.1,0,0.1,0,0.1,0H44c0.2,0.1,0.3,0.1,0.5,0.2c0.3,0.1,0.7,0.3,1,0.4l0.7,0.3v-0.1v-1v-2
			c0-1.3,0-2.7,0.1-4.1s0.2-2.7,0.7-4.2c0.1-0.4,0.3-0.7,0.5-1.1c0.1-0.1,0.1-0.2,0.2-0.3c0.1-0.1,0.2-0.2,0.3-0.3
			c0.2-0.1,0.3-0.2,0.4-0.3H28.6c-3-5.4,6.7-14,6.7-14s-8.2-0.6-12.9,14h-4.8l-5.8,12.4c8.9-4.4,10.6-12.4,10.6-12.4h6.2
			c7.1,7.3,13.8,1.9,14.4,1.4c-1.4,1.1-3.3,9.8-3.3,9.8C31.6,45.1,27,47.2,27,47.2c-7.5,5.2-14.8,5.9-16.3,6l-7,15.1h20.8
			c-0.1-0.1-0.1-0.2-0.1-0.2s0.1,0.1,0.2,0.2h30.1c12.5-12.3,7.2-27.7,7.2-27.7s10.6,15.2,1,27.7H85L22,196.6l48.2-23
			c-0.1-0.6-0.1-1.2-0.2-1.8c-0.4-2.7-1.2-5.3-2.4-7.8c-0.3-0.6-0.6-1.2-1-1.8c-0.3-0.6-0.8-1.2-1.1-1.8c-0.8-1.1-1.7-2.3-2.7-3.3
			c-2-2.1-4.3-3.9-6.9-5.6c6.1,1.1,11.8,5,15.4,10.5c1.1,1.7,2,3.5,2.7,5.5l49.1-98.8l14.5-29.9L50.3,38.8z M19,57.4l16.6-4
			c-11.3,3.6-12.8,7.5-17,6.8C14.3,59.6,19,57.4,19,57.4z"/>
	</g>
	<g>
		<path class="st3" d="M198.1,57.4c-5.5-4.8-10.9-5.6-17-5.6c-8.5-0.1-16.7,3-16.5,9.9c0.2,7.2,9.7,8.6,16.6,9.8
			c9.7,1.6,23.1,3.3,22.5,15.7c-0.3,11.8-12.8,15-22.4,15c-9.6,0-19.1-3.6-23.8-10.8l4-3.5c4.5,6.4,12.7,9.1,20,9.1
			c6.6,0,16.7-1.7,17-10.2c0.2-7.7-8.8-9.2-17.8-10.6c-10.6-1.7-21.1-3.7-21.2-14.4c-0.1-10.5,10.6-15.1,21.6-15
			c7.9,0,14.9,2.2,20.3,7.2L198.1,57.4z"/>
		<path class="st3" d="M212.7,74.5c0-16.1,12.4-27.7,27.7-27.7s29,9.2,26.9,30.2h-49.1c1.1,12.6,10.9,19.9,22.2,19.9
			c7.2,0,15.6-2.8,19.7-8.1l3.9,3c-5.3,6.8-14.8,10.3-23.5,10.3C225,102.1,212.7,91.5,212.7,74.5z M262.4,72.3
			c-0.1-13.3-8.9-20.6-22.1-20.6c-11.3,0-21,7.5-22.2,20.6H262.4z"/>
		<path class="st3" d="M274.9,47.7h6l19.9,47.5l19.9-47.5h6l-22.9,53.7h-6L274.9,47.7z"/>
		<path class="st3" d="M332.4,74.5c0-16.1,12.4-27.7,27.7-27.7c15.3,0,29,9.2,26.9,30.2h-49c1.1,12.6,10.9,19.9,22.2,19.9
			c7.2,0,15.6-2.8,19.7-8.1l3.9,3c-5.3,6.8-14.8,10.3-23.5,10.3C344.8,102.1,332.4,91.5,332.4,74.5z M382.2,72.3
			c-0.1-13.3-8.9-20.6-22.1-20.6c-11.3,0-21,7.5-22.2,20.6H382.2z"/>
		<path class="st3" d="M406.4,47.7v9.6c4.2-7.4,11.8-10.4,19.4-10.5c14.6,0,24.6,8.8,24.6,23.7v31H445V70.7
			c0-12.2-7.6-18.7-19.4-18.6c-11.3,0.1-19.1,8.5-19.1,19.6v29.9h-5.4V47.9h5.3V47.7z"/>
	</g>
	<g>
		<path class="st1" d="M167.8,118.9h-7.5v-1.4h16.6v1.4h-7.5v19h-1.6V118.9z"/>
		<path class="st1" d="M187.5,126.9h12.2v1.4h-12.2v8.1h13.1v1.5h-14.7v-20.4h14.3v1.5h-12.8L187.5,126.9L187.5,126.9z"/>
		<path class="st1" d="M227.2,135.1c-2.1,2-4.8,3.1-7.6,3.1c-7,0-10.7-4.8-10.7-10.3c-0.1-5.5,3.6-10.6,10.7-10.6
			c2.7,0,5.5,1,7.6,3.1l-1.1,0.9c-1.8-1.8-4.1-2.6-6.5-2.6c-6.1,0-9.2,4.2-9.1,9.1c0.1,4.8,3.1,8.9,9.1,8.9c2.3,0,4.7-0.9,6.5-2.6
			L227.2,135.1z"/>
		<path class="st1" d="M251.8,137.9v-9.3h-13.2v9.3H237v-20.4h1.6v9.7h13.2v-9.7h1.6v20.4H251.8z"/>
		<path class="st1" d="M264.6,117.5l14,16.9v-16.9h1.6v20.4h-0.6l-14-16.9v16.9H264v-20.4H264.6z"/>
		<path class="st1" d="M311.1,127.7c0,5.4-3.5,10.5-10.5,10.5s-10.5-5.2-10.5-10.6c0-5.5,3.5-10.5,10.5-10.5
			C307.7,117.2,311.2,122.2,311.1,127.7z M291.8,127.7c0,4.6,3,9.1,8.9,9.1s8.9-4.5,8.9-9.1c0-4.7-3-9.1-8.9-9.1
			C294.7,118.6,291.7,122.9,291.8,127.7z"/>
		<path class="st1" d="M322.5,117.5v19h11.7v1.5h-13.3v-20.4h1.6V117.5z"/>
		<path class="st1" d="M362.6,127.7c0,5.4-3.5,10.5-10.5,10.5s-10.5-5.2-10.5-10.6c0-5.5,3.5-10.5,10.5-10.5
			S362.6,122.2,362.6,127.7z M343.2,127.7c0,4.6,3,9.1,8.9,9.1s8.9-4.5,8.9-9.1c0-4.7-3-9.1-8.9-9.1S343.2,122.9,343.2,127.7z"/>
		<path class="st1" d="M388.7,121.3c-1.8-1.8-4.3-2.6-6.7-2.6c-6.1,0-9.2,4.4-9.2,9.1c0,4.8,3.1,9,9.2,9c2.2,0,4.5-0.8,6.3-2.4v-5.8
			h-7.2v-1.4h8.8v7.7c-2.2,2.1-4.8,3.3-7.8,3.3c-7.1,0-10.7-4.8-10.7-10.4c0-6.4,4.4-10.6,10.7-10.6c2.7,0,5.5,1,7.6,3.1
			L388.7,121.3z"/>
		<path class="st1" d="M400.2,137.9v-20.4h1.6v20.4H400.2z"/>
		<path class="st1" d="M413.8,126.9H426v1.4h-12.2v8.1H427v1.5h-14.7v-20.4h14.3v1.5h-12.8V126.9z"/>
		<path class="st1" d="M450.5,121.4c-1.5-2.4-3.9-2.7-6.3-2.8c-2.4,0-6.3,0.9-6.3,4.1c0,2.6,2.8,3.2,6.4,3.9c4,0.8,8.2,1.5,8.2,5.9
			c0,4.6-4.7,5.7-8.2,5.7c-3.2,0-6.9-1.3-8.5-4.4l1.4-0.7c1.3,2.5,4.5,3.7,7.1,3.7s6.6-0.7,6.6-4.3c0-3.1-3.4-3.7-6.8-4.4
			c-3.8-0.7-7.7-1.5-7.7-5.3c-0.1-4.3,4.5-5.7,7.9-5.7c3,0,5.6,0.5,7.6,3.5L450.5,121.4z"/>
	</g>
</g>
</svg>
