<?xml version="1.0" encoding="utf-8"?>
<!-- Generator: Adobe Illustrator 25.0.1, SVG Export Plug-In . SVG Version: 6.00 Build 0)  -->
<svg version="1.1" xmlns="http://www.w3.org/2000/svg" xmlns:xlink="http://www.w3.org/1999/xlink" x="0px" y="0px"
	 viewBox="0 0 196 66.6" style="enable-background:new 0 0 196 66.6;" xml:space="preserve">
<style type="text/css">
	.st0{fill:#D91218;}
	.st1{fill:#4F5250;}
</style>
<g id="Symbol">
	<path class="st0" d="M68.9,65.1c-0.8-1.1-1.7-2.1-2.6-3c0-0.1,0.1-0.1,0.1-0.2c1.3,0,2.7-0.1,4-0.3c-1.3-0.2-2.7-0.2-4-0.3
		c0-0.1-0.1-0.2-0.1-0.2c0.9-1,1.8-2,2.6-3c-1.1,0.8-2.1,1.7-3,2.6c-0.1,0-0.1-0.1-0.2-0.1c0-1.3-0.1-2.7-0.3-4
		c-0.2,1.3-0.2,2.7-0.3,4c-0.1,0-0.1,0-0.2,0.1c-1-0.9-2-1.8-3-2.6c0.8,1.1,1.7,2.1,2.6,3c0,0.1-0.1,0.1-0.1,0.2L9.9,60.6l5.1-8.9
		h44.6L36.1,10.9L13.8,49.7l-10.4,0L29.8,0L0,51.7h12.6L6.3,62.6l58.1-0.7c0,0.1,0,0.1,0.1,0.2c-0.9,1-1.8,1.9-2.6,3
		c1.1-0.8,2.1-1.7,3-2.6c0.1,0,0.1,0.1,0.2,0.1c0,1.3,0.1,2.7,0.3,4c0.2-1.3,0.2-2.7,0.3-4c0.1,0,0.2-0.1,0.2-0.1
		C66.9,63.4,67.8,64.3,68.9,65.1z M36.1,15L56,49.7l-39.8,0L36.1,15z"/>
</g>
<g id="OPTEC_x2B_baseline">
	<g>
		<path class="st1" d="M116,64.1v-5h0.6v4.4h3.9v0.5H116z"/>
		<path class="st1" d="M123.4,64h-0.6l2.6-5h0.9l2.6,5h-0.7l-2.4-4.5L123.4,64z"/>
		<path class="st1" d="M133.3,61.3c0.3,0,0.6,0,0.9,0c0.2,0,0.4,0.1,0.6,0.1c0.2,0.1,0.3,0.1,0.4,0.2c0.1,0.1,0.2,0.2,0.2,0.3
			c0.1,0.1,0.1,0.2,0.1,0.4c0,0.1,0,0.3,0,0.4c0,0.2,0,0.3,0,0.4c0,0.1-0.1,0.3-0.1,0.4s-0.2,0.2-0.3,0.3c-0.1,0.1-0.3,0.2-0.5,0.2
			c-0.2,0.1-0.4,0.1-0.7,0.1c-0.3,0-0.6,0-0.9,0h-0.8c-0.3,0-0.6,0-0.8,0c-0.2,0-0.4-0.1-0.6-0.1c-0.2,0-0.3-0.1-0.4-0.2
			c-0.1-0.1-0.2-0.2-0.3-0.3c-0.1-0.1-0.1-0.2-0.1-0.3c0-0.1,0-0.3,0-0.4h0.6c0,0.2,0,0.4,0.1,0.5c0.1,0.1,0.1,0.2,0.3,0.3
			c0.1,0.1,0.3,0.1,0.5,0.1c0.2,0,0.5,0,0.8,0h0.8c0.4,0,0.7,0,0.9-0.1c0.2,0,0.4-0.1,0.6-0.2c0.1-0.1,0.2-0.2,0.3-0.3
			c0.1-0.1,0.1-0.3,0.1-0.4c0-0.2,0-0.3-0.1-0.4c0-0.1-0.1-0.2-0.2-0.3c-0.1-0.1-0.3-0.1-0.5-0.1c-0.2,0-0.5,0-0.8,0h-0.9
			c-0.4,0-0.7,0-1,0c-0.3,0-0.5-0.1-0.7-0.1c-0.2-0.1-0.3-0.1-0.4-0.2c-0.1-0.1-0.2-0.2-0.3-0.3c-0.1-0.1-0.1-0.2-0.1-0.3
			c0-0.1,0-0.3,0-0.4c0-0.2,0-0.3,0-0.4c0-0.1,0.1-0.2,0.2-0.3c0.1-0.1,0.2-0.2,0.3-0.3c0.1-0.1,0.3-0.2,0.5-0.2
			c0.2-0.1,0.4-0.1,0.7-0.1c0.3,0,0.6,0,1,0h0.6c0.3,0,0.6,0,0.8,0c0.2,0,0.4,0.1,0.6,0.1c0.2,0,0.3,0.1,0.4,0.2
			c0.1,0.1,0.2,0.2,0.3,0.3c0.1,0.1,0.1,0.2,0.1,0.3s0,0.3,0,0.4h-0.6c0-0.2,0-0.3-0.1-0.5c-0.1-0.1-0.1-0.2-0.3-0.2
			c-0.1-0.1-0.3-0.1-0.5-0.1c-0.2,0-0.5,0-0.8,0h-0.6c-0.4,0-0.8,0-1,0c-0.3,0-0.5,0.1-0.6,0.1c-0.2,0.1-0.3,0.2-0.3,0.3
			c-0.1,0.1-0.1,0.3-0.1,0.4c0,0.1,0,0.2,0,0.3c0,0.1,0,0.2,0.1,0.2c0,0.1,0.1,0.1,0.2,0.2s0.2,0.1,0.3,0.1c0.1,0,0.3,0,0.5,0.1
			c0.2,0,0.4,0,0.7,0H133.3z"/>
		<path class="st1" d="M137.8,64.1v-5h5v0.5h-4.3v1.7h4.1v0.5h-4.1v1.8h4.3v0.5H137.8z"/>
		<path class="st1" d="M145.6,64H145l2.6-5h0.9l2.6,5h-0.7l-2.4-4.5L145.6,64z"/>
		<path class="st1" d="M163.1,60.7c0-0.3,0-0.5-0.1-0.6c-0.1-0.2-0.1-0.3-0.3-0.3c-0.1-0.1-0.3-0.1-0.5-0.1c-0.2,0-0.5,0-0.8,0h-1.7
			c-0.3,0-0.5,0-0.7,0s-0.3,0-0.5,0.1c-0.1,0-0.2,0.1-0.3,0.2c-0.1,0.1-0.1,0.2-0.1,0.4c0,0.2,0,0.3-0.1,0.6c0,0.2,0,0.5,0,0.8
			c0,0.3,0,0.6,0,0.8c0,0.2,0,0.4,0.1,0.6s0.1,0.3,0.1,0.4c0.1,0.1,0.2,0.2,0.3,0.2c0.1,0,0.3,0.1,0.5,0.1s0.4,0,0.7,0h1.7
			c0.2,0,0.4,0,0.6,0c0.2,0,0.3,0,0.4-0.1c0.1,0,0.2-0.1,0.3-0.1c0.1-0.1,0.1-0.1,0.2-0.2c0-0.1,0.1-0.2,0.1-0.3c0-0.1,0-0.3,0-0.5
			v-0.3h-2.5v-0.5h3.1v0.8c0,0.2,0,0.4,0,0.6c0,0.2-0.1,0.3-0.1,0.4c-0.1,0.1-0.2,0.2-0.3,0.3c-0.1,0.1-0.2,0.2-0.4,0.2
			c-0.2,0.1-0.4,0.1-0.6,0.1c-0.2,0-0.5,0-0.8,0h-1.7c-0.4,0-0.7,0-1-0.1c-0.3,0-0.5-0.1-0.6-0.2c-0.2-0.1-0.3-0.2-0.4-0.4
			c-0.1-0.1-0.2-0.3-0.2-0.5c0-0.2-0.1-0.4-0.1-0.6c0-0.2,0-0.5,0-0.8s0-0.6,0-0.8c0-0.2,0-0.5,0.1-0.6c0-0.2,0.1-0.4,0.2-0.5
			c0.1-0.1,0.2-0.3,0.4-0.4c0.2-0.1,0.4-0.2,0.6-0.2c0.3,0,0.6-0.1,1-0.1h1.7c0.3,0,0.6,0,0.8,0c0.2,0,0.4,0.1,0.6,0.1
			c0.2,0.1,0.3,0.1,0.4,0.2c0.1,0.1,0.2,0.2,0.3,0.3c0.1,0.1,0.1,0.3,0.1,0.4c0,0.2,0,0.3,0,0.5H163.1z"/>
		<path class="st1" d="M171.6,64.1H171v-0.9c0-0.2,0-0.3,0-0.4c0-0.1,0-0.2-0.1-0.3c0-0.1-0.1-0.1-0.1-0.2c-0.1,0-0.2-0.1-0.3-0.1
			c-0.1,0-0.3,0-0.5-0.1s-0.4,0-0.7,0h-2.8v2h-0.6v-5h3.5c0.4,0,0.7,0,1,0c0.3,0,0.5,0.1,0.6,0.1c0.2,0.1,0.3,0.1,0.4,0.2
			c0.1,0.1,0.2,0.2,0.2,0.3c0,0.1,0.1,0.2,0.1,0.4c0,0.1,0,0.3,0,0.4c0,0.2,0,0.4,0,0.5c0,0.2-0.1,0.3-0.1,0.4
			c-0.1,0.1-0.2,0.2-0.3,0.3c-0.1,0.1-0.3,0.1-0.4,0.1c0.2,0,0.3,0.1,0.4,0.1c0.1,0.1,0.2,0.1,0.2,0.3c0.1,0.1,0.1,0.2,0.1,0.4
			c0,0.1,0,0.3,0,0.5V64.1z M166.6,61.6h2.9c0.3,0,0.5,0,0.7,0c0.2,0,0.3,0,0.5-0.1c0.1,0,0.2-0.1,0.3-0.1c0.1,0,0.1-0.1,0.1-0.2
			c0-0.1,0-0.2,0.1-0.3s0-0.2,0-0.4c0-0.1,0-0.3,0-0.4s0-0.2-0.1-0.3c0-0.1-0.1-0.1-0.1-0.2c-0.1,0-0.2-0.1-0.3-0.1
			c-0.1,0-0.3,0-0.5,0c-0.2,0-0.4,0-0.7,0h-2.9V61.6z"/>
		<path class="st1" d="M177.9,59c0.4,0,0.7,0,1,0.1c0.3,0,0.5,0.1,0.6,0.2c0.2,0.1,0.3,0.2,0.4,0.4c0.1,0.1,0.2,0.3,0.2,0.5
			c0,0.2,0.1,0.4,0.1,0.6c0,0.2,0,0.5,0,0.8s0,0.6,0,0.8c0,0.2,0,0.5-0.1,0.6c0,0.2-0.1,0.4-0.2,0.5c-0.1,0.1-0.2,0.3-0.4,0.4
			c-0.2,0.1-0.4,0.2-0.6,0.2c-0.3,0-0.6,0.1-1,0.1H176c-0.4,0-0.7,0-1-0.1c-0.3,0-0.5-0.1-0.6-0.2c-0.2-0.1-0.3-0.2-0.4-0.4
			c-0.1-0.1-0.2-0.3-0.2-0.5c0-0.2-0.1-0.4-0.1-0.6c0-0.2,0-0.5,0-0.8s0-0.6,0-0.8c0-0.2,0-0.5,0.1-0.6c0-0.2,0.1-0.4,0.2-0.5
			c0.1-0.1,0.2-0.3,0.4-0.4c0.2-0.1,0.4-0.2,0.6-0.2c0.3,0,0.6-0.1,1-0.1H177.9z M177.9,63.7c0.3,0,0.5,0,0.7,0c0.2,0,0.3,0,0.5-0.1
			s0.2-0.1,0.3-0.2c0.1-0.1,0.1-0.2,0.1-0.4s0-0.3,0.1-0.6c0-0.2,0-0.5,0-0.8c0-0.3,0-0.6,0-0.8c0-0.2,0-0.4-0.1-0.6
			c0-0.2-0.1-0.3-0.1-0.4c-0.1-0.1-0.2-0.2-0.3-0.2c-0.1,0-0.3-0.1-0.5-0.1s-0.4,0-0.7,0H176c-0.3,0-0.5,0-0.7,0
			c-0.2,0-0.3,0-0.5,0.1c-0.1,0-0.2,0.1-0.3,0.2c-0.1,0.1-0.1,0.2-0.1,0.4c0,0.2,0,0.3-0.1,0.6c0,0.2,0,0.5,0,0.8c0,0.3,0,0.6,0,0.8
			c0,0.2,0,0.4,0.1,0.6c0,0.2,0.1,0.3,0.1,0.4c0.1,0.1,0.2,0.2,0.3,0.2s0.3,0.1,0.5,0.1c0.2,0,0.4,0,0.7,0H177.9z"/>
		<path class="st1" d="M188.2,59.1v2.5c0,0.3,0,0.6,0,0.8c0,0.2,0,0.5-0.1,0.6c0,0.2-0.1,0.4-0.2,0.5c-0.1,0.1-0.2,0.3-0.4,0.4
			c-0.2,0.1-0.4,0.2-0.6,0.2c-0.3,0-0.6,0.1-1,0.1h-1.5c-0.4,0-0.7,0-1-0.1c-0.3,0-0.5-0.1-0.6-0.2c-0.2-0.1-0.3-0.2-0.4-0.4
			c-0.1-0.1-0.2-0.3-0.2-0.5c0-0.2-0.1-0.4-0.1-0.6c0-0.2,0-0.5,0-0.8v-2.5h0.6v2.5c0,0.3,0,0.6,0,0.8c0,0.2,0,0.4,0.1,0.6
			c0,0.2,0.1,0.3,0.1,0.4c0.1,0.1,0.2,0.2,0.3,0.2s0.3,0.1,0.5,0.1c0.2,0,0.4,0,0.7,0h1.5c0.3,0,0.5,0,0.7,0c0.2,0,0.3,0,0.5-0.1
			c0.1,0,0.2-0.1,0.3-0.2c0.1-0.1,0.1-0.2,0.1-0.4c0-0.2,0-0.3,0.1-0.6c0-0.2,0-0.5,0-0.8l0-2.5H188.2z"/>
		<path class="st1" d="M190.4,59.1h3.7c0.3,0,0.6,0,0.8,0c0.2,0,0.4,0.1,0.5,0.1c0.1,0.1,0.2,0.1,0.3,0.2c0.1,0.1,0.1,0.2,0.2,0.3
			c0,0.1,0.1,0.2,0.1,0.4c0,0.1,0,0.3,0,0.4c0,0.2,0,0.3,0,0.5c0,0.1,0,0.3-0.1,0.4c0,0.1-0.1,0.2-0.2,0.3c-0.1,0.1-0.2,0.2-0.4,0.2
			c-0.2,0.1-0.4,0.1-0.6,0.1c-0.3,0-0.6,0-1,0H191v2h-0.6V59.1z M191,61.6h2.7c0.3,0,0.5,0,0.7,0c0.2,0,0.3,0,0.5-0.1
			c0.1,0,0.2-0.1,0.3-0.1c0.1,0,0.1-0.1,0.1-0.2c0-0.1,0-0.2,0.1-0.3s0-0.2,0-0.4c0-0.1,0-0.3,0-0.4s0-0.2-0.1-0.3
			c0-0.1-0.1-0.1-0.1-0.2c-0.1,0-0.2-0.1-0.3-0.1s-0.3,0-0.5,0c-0.2,0-0.4,0-0.7,0H191V61.6z"/>
	</g>
	<g>
		<path class="st1" d="M82.4,30.9c1.6,0,2.9,0.1,3.9,0.3c1.1,0.2,1.9,0.5,2.6,0.9c0.7,0.4,1.2,0.9,1.6,1.5s0.6,1.3,0.8,2.1
			c0.2,0.8,0.3,1.7,0.3,2.7c0,1,0,2.1,0,3.3s0,2.3,0,3.3c0,1-0.1,1.9-0.3,2.7c-0.2,0.8-0.4,1.5-0.8,2.1s-0.9,1.1-1.6,1.5
			c-0.7,0.4-1.6,0.7-2.6,0.9c-1.1,0.2-2.4,0.3-3.9,0.3h-7.7c-1.6,0-2.9-0.1-3.9-0.3c-1.1-0.2-1.9-0.5-2.6-0.9
			c-0.7-0.4-1.2-0.9-1.6-1.5c-0.4-0.6-0.6-1.3-0.8-2.1c-0.2-0.8-0.3-1.7-0.3-2.7c0-1,0-2.1,0-3.3s0-2.3,0-3.3c0-1,0.1-1.9,0.3-2.7
			c0.2-0.8,0.4-1.5,0.8-2.1c0.4-0.6,0.9-1.1,1.6-1.5c0.7-0.4,1.6-0.7,2.6-0.9c1.1-0.2,2.4-0.3,3.9-0.3H82.4z M82.4,50
			c1.1,0,2.1,0,2.8-0.1c0.8-0.1,1.4-0.2,1.9-0.4c0.5-0.2,0.9-0.5,1.2-0.9c0.3-0.4,0.5-0.9,0.6-1.5c0.1-0.6,0.2-1.4,0.2-2.3
			c0-0.9,0-2,0-3.3c0-1.3,0-2.4,0-3.3c0-0.9-0.1-1.7-0.2-2.3c-0.1-0.6-0.3-1.1-0.6-1.5c-0.3-0.4-0.7-0.7-1.2-0.9
			c-0.5-0.2-1.1-0.3-1.9-0.4C84.4,33,83.5,33,82.4,33h-7.7c-1.1,0-2.1,0-2.9,0.1c-0.8,0.1-1.4,0.2-1.9,0.4c-0.5,0.2-0.9,0.5-1.2,0.9
			c-0.3,0.4-0.5,0.9-0.6,1.5c-0.1,0.6-0.2,1.4-0.2,2.3c0,0.9,0,2,0,3.3c0,1.3,0,2.4,0,3.3c0,0.9,0.1,1.7,0.2,2.3
			c0.1,0.6,0.3,1.1,0.6,1.5c0.3,0.4,0.7,0.7,1.2,0.9c0.5,0.2,1.1,0.3,1.9,0.4c0.8,0.1,1.7,0.1,2.9,0.1H82.4z"/>
		<path class="st1" d="M95.9,31.3h15.3c1.3,0,2.3,0.1,3.2,0.2c0.9,0.1,1.6,0.3,2.2,0.5c0.6,0.2,1,0.5,1.3,0.8
			c0.3,0.3,0.5,0.7,0.7,1.2s0.2,0.9,0.2,1.5c0,0.5,0,1.2,0,1.8c0,0.7,0,1.3,0,1.9c0,0.6-0.1,1.1-0.3,1.6c-0.2,0.5-0.4,0.9-0.8,1.2
			c-0.4,0.4-0.9,0.7-1.6,0.9c-0.7,0.2-1.6,0.4-2.6,0.5c-1.1,0.1-2.4,0.2-3.9,0.2h-11v8.1h-2.5V31.3z M98.5,41.5h11
			c1.1,0,2.1,0,2.9-0.1c0.8,0,1.4-0.1,1.9-0.2c0.5-0.1,0.9-0.3,1.2-0.5c0.3-0.2,0.5-0.5,0.6-0.8c0.1-0.3,0.2-0.7,0.2-1.1
			c0-0.4,0-1,0-1.6c0-0.6,0-1.1,0-1.5c0-0.4-0.1-0.8-0.2-1c-0.1-0.3-0.3-0.5-0.6-0.7c-0.3-0.2-0.7-0.3-1.2-0.4
			c-0.5-0.1-1.1-0.2-1.9-0.2c-0.8,0-1.7,0-2.9,0h-11V41.5z"/>
		<path class="st1" d="M144.3,31.3v2.1h-10.2v18.2h-2.5V33.4h-10.2v-2.1H144.3z"/>
		<path class="st1" d="M148.5,51.7V31.3h20.4v2.1h-17.8v6.8h17v2.1h-17v7.2h17.8v2.1H148.5z"/>
		<path class="st1" d="M193.5,37.7c0-1.1-0.1-1.9-0.3-2.5c-0.2-0.6-0.6-1.1-1.1-1.4c-0.5-0.3-1.2-0.5-2.1-0.6
			C189,33,188,33,186.7,33h-6c-1.1,0-2.1,0-2.9,0.1c-0.8,0.1-1.4,0.2-1.9,0.4c-0.5,0.2-0.9,0.5-1.2,0.9c-0.3,0.4-0.5,0.9-0.6,1.5
			c-0.1,0.6-0.2,1.4-0.2,2.3c0,0.9,0,2,0,3.3c0,1.3,0,2.4,0,3.3c0,0.9,0.1,1.7,0.2,2.3c0.1,0.6,0.3,1.1,0.6,1.5
			c0.3,0.4,0.7,0.7,1.2,0.9c0.5,0.2,1.1,0.3,1.9,0.4c0.8,0.1,1.7,0.1,2.9,0.1h6c1,0,1.8,0,2.6-0.1c0.7-0.1,1.3-0.1,1.8-0.3
			c0.5-0.1,0.9-0.3,1.2-0.6c0.3-0.2,0.6-0.6,0.7-0.9c0.2-0.4,0.3-0.8,0.4-1.4c0.1-0.5,0.1-1.1,0.1-1.8h2.5c0,0.8-0.1,1.6-0.2,2.3
			c-0.1,0.7-0.3,1.3-0.6,1.8c-0.3,0.5-0.6,1-1.1,1.4c-0.5,0.4-1,0.7-1.7,1c-0.7,0.3-1.5,0.4-2.5,0.6c-1,0.1-2.1,0.2-3.3,0.2h-6
			c-1.6,0-2.9-0.1-3.9-0.3c-1.1-0.2-1.9-0.5-2.6-0.9c-0.7-0.4-1.2-0.9-1.6-1.5s-0.6-1.3-0.8-2.1c-0.2-0.8-0.3-1.7-0.3-2.7
			c0-1,0-2.1,0-3.3s0-2.3,0-3.3c0-1,0.1-1.9,0.3-2.7c0.2-0.8,0.4-1.5,0.8-2.1s0.9-1.1,1.6-1.5c0.7-0.4,1.6-0.7,2.6-0.9
			c1.1-0.2,2.4-0.3,3.9-0.3h6c1.3,0,2.4,0.1,3.3,0.2c1,0.1,1.8,0.3,2.5,0.5c0.7,0.2,1.3,0.6,1.7,0.9s0.8,0.8,1.1,1.3
			c0.3,0.5,0.5,1.1,0.6,1.7c0.1,0.6,0.2,1.3,0.2,2.1H193.5z"/>
	</g>
</g>
</svg>
